#!OML:ASF F:\VICON\USERDATA\Patient Classification 1\PLAYGROUND\JustinFriday\JustinFriday.ASF
:FULLY-SPECIFIED
:DEGREES
1778
root 43.0293 18.3519 -8.30528 12.2672 -63.0679 -14.0388
lowerback 11.6058 1.64616 4.30741
upperback 2.49174 2.72601 2.60752
thorax -3.81803 1.27638 -0.0995793
lowerneck -6.05279 -1.7934 -7.3821
upperneck 14.4137 -1.38974 -2.23517
head 5.40423 -1.27374 0.415168
rclavicle 2.6985e-014 -3.97569e-015
rhumerus -10.9635 -11.3179 -73.2206
rradius 43.252
rwrist -17.77
rhand -25.0951 -26.3023
rfingers 7.12502
rthumb 1.41975 -56.2773
lclavicle 2.6985e-014 -3.97569e-015
lhumerus -38.0962 6.19635 81.6246
lradius 56.3849
lwrist -0.568061
lhand -8.43666 -13.7792
lfingers 7.12502
lthumb 17.4886 15.4541
rfemur 1.18268 -2.72756 27.4686
rtibia 20.6284
rfoot -4.2634 -17.7732
rtoes -24.8067
lfemur -24.112 12.0164 -6.50759
ltibia 61.7549
lfoot -17.9448 6.08191
ltoes 16.7272
1779
root 43.02 18.3462 -8.28362 13.2167 -62.2582 -14.7908
lowerback 11.4872 1.8467 4.99285
upperback 2.298 3.07206 2.38297
thorax -3.89509 1.43859 -0.764028
lowerneck -6.59195 -2.12551 -6.67239
upperneck 15.2594 -1.87037 -2.06978
head 5.76341 -1.48526 0.309693
rclavicle -6.48783e-014 1.98785e-015
rhumerus -11.4595 -12.538 -73.2429
rradius 44.3309
rwrist -17.6217
rhand -25.9456 -26.646
rfingers 7.12502
rthumb 0.598315 -56.6249
lclavicle -6.48783e-014 1.98785e-015
lhumerus -37.7479 5.42598 81.3406
lradius 56.343
lwrist -0.193818
lhand -8.74673 -13.4238
lfingers 7.12502
lthumb 17.1902 15.8358
rfemur 0.96694 -2.93599 28.0668
rtibia 20.5238
rfoot -4.15627 -18.1232
rtoes -24.6557
lfemur -24.7159 12.3552 -5.4037
ltibia 61.4927
lfoot -18.019 5.51203
ltoes 17.287
1780
root 43.0073 18.3454 -8.26449 12.8819 -61.7195 -14.2988
lowerback 11.4248 2.22026 5.17219
upperback 2.26029 3.56723 1.77574
thorax -3.82578 1.68476 -1.56225
lowerneck -7.53947 -2.63764 -5.38235
upperneck 16.3421 -2.63654 -2.02475
head 6.26171 -1.80789 0.0373756
rclavicle 9.18758e-014 4.09993e-015
rhumerus -12.1943 -13.8822 -73.4269
rradius 45.678
rwrist -17.9173
rhand -26.8336 -27.0648
rfingers 7.12502
rthumb -0.259389 -57.0444
lclavicle 9.18758e-014 4.09993e-015
lhumerus -36.5817 3.50298 80.9025
lradius 55.5597
lwrist 0.550199
lhand -9.81149 -13.2204
lfingers 7.12502
lthumb 16.1652 16.1255
rfemur 0.943937 -2.75222 28.0337
rtibia 20.5107
rfoot -4.05804 -18.7
rtoes -24.4292
lfemur -24.9683 12.5079 -4.99222
ltibia 60.9689
lfoot -18.0942 5.28574
ltoes 19.7965
1781
root 42.9851 18.3478 -8.22963 10.983 -61.2795 -12.2677
lowerback 11.3834 1.94764 3.98777
upperback 2.25818 3.06984 1.82794
thorax -3.90296 1.45216 -0.778173
lowerneck -8.23508 -2.50693 -6.14565
upperneck 17.2995 -2.28727 -2.00429
head 6.69868 -1.71725 0.177387
rclavicle 5.19636e-014 8.67198e-015
rhumerus -12.3351 -12.1056 -73.2005
rradius 46.7968
rwrist -18.6587
rhand -27.3296 -26.8658
rfingers 7.12502
rthumb -0.738472 -56.8443
lclavicle 5.19636e-014 8.67198e-015
lhumerus -36.7198 5.08808 80.7618
lradius 55.1869
lwrist 0.600946
lhand -10.6742 -13.2926
lfingers 7.12502
lthumb 15.3344 16.1188
rfemur 1.20916 -2.7306 27.0651
rtibia 20.5783
rfoot -4.08094 -19.2779
rtoes -24.5311
lfemur -24.7909 12.3907 -5.52563
ltibia 60.1078
lfoot -17.9858 5.99249
ltoes 14.6149
1782
root 42.9524 18.3602 -8.17891 8.56492 -60.8074 -9.56144
lowerback 11.1479 1.66437 2.51684
upperback 2.32196 2.51358 1.82232
thorax -3.79332 1.19735 0.125651
lowerneck -9.01341 -2.33564 -7.11933
upperneck 18.0477 -1.86 -1.78682
head 7.08785 -1.58571 0.427056
rclavicle -2.39039e-014 3.88624e-014
rhumerus -12.2882 -10.6268 -72.9308
rradius 47.7591
rwrist -18.9038
rhand -26.6308 -26.2885
rfingers 7.12502
rthumb -0.0635462 -56.2683
lclavicle -2.39039e-014 3.88624e-014
lhumerus -37.1269 7.02538 80.6104
lradius 55.1949
lwrist 0.802708
lhand -10.6158 -13.3629
lfingers 7.12502
lthumb 15.3906 16.0442
rfemur 1.4625 -3.27819 25.5378
rtibia 20.6759
rfoot -4.28775 -19.4425
rtoes -24.544
lfemur -24.5214 12.1755 -6.55771
ltibia 58.947
lfoot -17.9194 6.61243
ltoes 17.6259
1783
root 42.9239 18.3695 -8.13417 6.63795 -60.2961 -7.36691
lowerback 10.8845 1.84239 1.82162
upperback 2.52944 2.63307 1.17916
thorax -3.43119 1.26794 -0.156288
lowerneck -9.12576 -2.46041 -6.7212
upperneck 18.0842 -2.13423 -1.47363
head 7.12084 -1.6607 0.438198
rclavicle 3.2172e-014 -5.54151e-015
rhumerus -12.599 -11.318 -73.1355
rradius 48.763
rwrist -18.5815
rhand -26.1567 -26.119
rfingers 7.12502
rthumb 0.394438 -56.0984
lclavicle 3.2172e-014 -5.54151e-015
lhumerus -36.4952 6.55408 80.156
lradius 54.9311
lwrist 1.34984
lhand -10.5788 -13.4625
lfingers 7.12502
lthumb 15.4263 15.9419
rfemur 1.70589 -3.89401 24.2438
rtibia 20.6673
rfoot -4.31873 -19.5706
rtoes -24.85
lfemur -24.2829 11.9316 -7.30306
ltibia 57.6644
lfoot -18.0611 6.20973
ltoes 14.7724
